<svg width="24" height="23" viewBox="0 0 24 23" fill="none" xmlns="http://www.w3.org/2000/svg">
<path d="M22.8597 0.289759C22.6764 0.106329 22.4012 0.0499257 22.1606 0.146222L1.32796 8.47915C1.0896 8.5745 0.929984 8.8015 0.920822 9.0581C0.911702 9.31466 1.05485 9.55242 1.28582 9.66445L9.50076 13.6486L13.485 21.8635C13.5936 22.0876 13.8205 22.229 14.0681 22.229C14.0758 22.229 14.0836 22.2289 14.0913 22.2285C14.3478 22.2194 14.5749 22.0598 14.6702 21.8215L23.0032 0.988989C23.0995 0.748162 23.0431 0.473146 22.8597 0.289759ZM3.17195 9.1381L19.7094 2.52316L9.85379 12.3787L3.17195 9.1381ZM14.0113 19.9775L10.7706 13.2955L20.6263 3.43997L14.0113 19.9775Z" fill="white"/>
</svg>
