<svg width="28" height="28" viewBox="0 0 28 28" fill="none" xmlns="http://www.w3.org/2000/svg">
<g clip-path="url(#clip0_1_132)">
<path d="M25.0343 6.02271C22.5341 2.75679 18.7324 0.883659 14.604 0.883659C11.7015 0.883659 8.9492 1.81613 6.64439 3.5804C5.81045 4.21886 5.05603 4.9571 4.39925 5.77192L3.81362 2.45477C3.7495 2.09201 3.40319 1.84939 3.04078 1.91387L1.28923 2.22301C1.11501 2.25378 0.960174 2.35249 0.8587 2.49737C0.757227 2.64233 0.717562 2.82153 0.748333 2.99575L2.13979 10.8779C2.19698 11.2014 2.47837 11.4291 2.79586 11.4291C2.83437 11.4291 2.87341 11.4257 2.91263 11.4188L10.7948 10.0273C11.1576 9.96328 11.3998 9.61733 11.3357 9.25457L11.0265 7.50302C10.9957 7.32879 10.8971 7.17396 10.7522 7.07249C10.6072 6.97101 10.428 6.93144 10.2538 6.96212L6.96918 7.54197C7.43119 6.99591 7.95412 6.4978 8.53655 6.05197C10.2941 4.70666 12.3928 3.99564 14.606 3.99564C17.756 3.99564 20.656 5.42418 22.5629 7.91487C24.1873 10.0368 24.8881 12.6645 24.5363 15.3136C24.1844 17.9629 22.8219 20.3165 20.6999 21.9409C18.9374 23.2901 16.8419 24.0033 14.64 24.0033C14.1957 24.0033 13.7451 23.9734 13.3009 23.9144C10.6518 23.5626 8.29812 22.2002 6.67365 20.0781C5.68488 18.7865 5.02037 17.2625 4.75187 15.6709C4.72244 15.4965 4.62488 15.3409 4.48071 15.2383C4.33664 15.1358 4.15753 15.0949 3.98313 15.1241L2.22926 15.42C1.86606 15.4813 1.62131 15.8255 1.6825 16.1887C2.03494 18.2782 2.90614 20.2774 4.202 21.9702C6.33179 24.7524 9.41771 26.5387 12.891 27C13.4721 27.0772 14.0618 27.1163 14.6437 27.1163C17.5328 27.1163 20.2813 26.1813 22.5917 24.4126C25.374 22.2828 27.1603 19.1969 27.6216 15.7235C28.0832 12.25 27.1643 8.80492 25.0343 6.02271Z" fill="white"/>
</g>
<defs>
<clipPath id="clip0_1_132">
<rect width="27" height="27" fill="white" transform="translate(0.738159 0.5)"/>
</clipPath>
</defs>
</svg>
