<svg width="51" height="53" viewBox="0 0 51 53" fill="none" xmlns="http://www.w3.org/2000/svg">
<rect x="0.688477" y="0.0429077" width="50.279" height="52.6086" rx="7.13598" fill="#9BE0FC"/>
<g clip-path="url(#clip0_1_193)">
<path d="M25.2569 41.0966H14.66C13.7306 41.0966 12.8393 40.7274 12.1821 40.0703C11.525 39.4131 11.1558 38.5218 11.1558 37.5924V15.102C11.1558 14.1727 11.525 13.2813 12.1821 12.6242C12.8393 11.967 13.7306 11.5978 14.66 11.5978H30.8847C31.8141 11.5978 32.7055 11.967 33.3626 12.6242C34.0198 13.2813 34.389 14.1727 34.389 15.102V23.5123C34.3994 23.6221 34.3867 23.7328 34.3518 23.8374C34.3169 23.942 34.2605 24.0382 34.1863 24.1197C34.112 24.2013 34.0216 24.2664 33.9207 24.311C33.8199 24.3556 33.7108 24.3786 33.6006 24.3786C33.4903 24.3786 33.3812 24.3556 33.2804 24.311C33.1795 24.2664 33.0891 24.2013 33.0148 24.1197C32.9406 24.0382 32.8842 23.942 32.8493 23.8374C32.8144 23.7328 32.8017 23.6221 32.8121 23.5123V15.102C32.8121 14.852 32.7627 14.6045 32.6668 14.3736C32.571 14.1427 32.4304 13.933 32.2533 13.7565C32.0762 13.5801 31.866 13.4403 31.6348 13.3453C31.4035 13.2503 31.1558 13.2018 30.9058 13.2027H14.66C14.4088 13.1999 14.1596 13.247 13.9267 13.3412C13.6939 13.4354 13.482 13.5749 13.3034 13.7515C13.1248 13.9282 12.983 14.1385 12.8862 14.3703C12.7895 14.6021 12.7397 14.8508 12.7397 15.102V37.6134C12.7397 37.8646 12.7895 38.1133 12.8862 38.3451C12.983 38.5769 13.1248 38.7873 13.3034 38.9639C13.482 39.1406 13.6939 39.28 13.9267 39.3742C14.1596 39.4684 14.4088 39.5155 14.66 39.5127H25.2569C25.4669 39.5127 25.6684 39.5962 25.8169 39.7447C25.9654 39.8932 26.0489 40.0946 26.0489 40.3047C26.0489 40.5147 25.9654 40.7162 25.8169 40.8647C25.6684 41.0132 25.4669 41.0966 25.2569 41.0966Z" fill="#0083B7"/>
<path d="M29.413 20.0641H16.0969C15.9871 20.0745 15.8763 20.0618 15.7717 20.0269C15.6671 19.992 15.5709 19.9356 15.4894 19.8614C15.4078 19.7871 15.3427 19.6967 15.2981 19.5958C15.2535 19.495 15.2305 19.3859 15.2305 19.2756C15.2305 19.1654 15.2535 19.0563 15.2981 18.9554C15.3427 18.8546 15.4078 18.7641 15.4894 18.6899C15.5709 18.6157 15.6671 18.5593 15.7717 18.5244C15.8763 18.4895 15.9871 18.4768 16.0969 18.4872H29.413C29.6093 18.5057 29.7916 18.5968 29.9243 18.7426C30.057 18.8884 30.1306 19.0785 30.1306 19.2756C30.1306 19.4728 30.057 19.6629 29.9243 19.8087C29.7916 19.9545 29.6093 20.0456 29.413 20.0641Z" fill="#0083B7"/>
<path d="M23.4418 26.2175H16.1179C15.9078 26.2175 15.7064 26.1341 15.5579 25.9856C15.4094 25.837 15.3259 25.6356 15.3259 25.4256C15.3259 25.2155 15.4094 25.0141 15.5579 24.8656C15.7064 24.717 15.9078 24.6336 16.1179 24.6336H23.4418C23.6518 24.6336 23.8533 24.717 24.0018 24.8656C24.1503 25.0141 24.2338 25.2155 24.2338 25.4256C24.2338 25.6356 24.1503 25.837 24.0018 25.9856C23.8533 26.1341 23.6518 26.2175 23.4418 26.2175Z" fill="#0083B7"/>
<path d="M39.6806 41.0966H28.467C28.2501 41.0948 28.0426 41.0078 27.8892 40.8544C27.7358 40.701 27.6488 40.4935 27.647 40.2766V37.5293C27.647 37.3118 27.7334 37.1032 27.8871 36.9495C28.0409 36.7957 28.2495 36.7093 28.467 36.7093C28.6844 36.7093 28.893 36.7957 29.0468 36.9495C29.2006 37.1032 29.287 37.3118 29.287 37.5293V39.4496H38.8606V37.6274C38.8606 37.4099 38.947 37.2014 39.1008 37.0476C39.2546 36.8938 39.4631 36.8074 39.6806 36.8074C39.8981 36.8074 40.1066 36.8938 40.2604 37.0476C40.4142 37.2014 40.5006 37.4099 40.5006 37.6274V40.2696C40.5006 40.4877 40.4144 40.697 40.2609 40.8519C40.1073 41.0068 39.8987 41.0948 39.6806 41.0966Z" fill="#0083B7"/>
<path d="M34.1647 26.2596C34.3734 26.2596 34.5742 26.3399 34.7254 26.4839L38.0824 29.6797C38.1602 29.7543 38.2225 29.8434 38.2659 29.9421C38.3092 30.0407 38.3327 30.1469 38.3349 30.2546C38.3372 30.3623 38.3182 30.4694 38.2791 30.5698C38.24 30.6702 38.1815 30.7619 38.107 30.8397C38.0324 30.9174 37.9433 30.9797 37.8446 31.0231C37.746 31.0664 37.6398 31.0899 37.5321 31.0921C37.4244 31.0944 37.3173 31.0755 37.2169 31.0363C37.1165 30.9972 37.0248 30.9387 36.9471 30.8642L34.1437 28.208L31.2001 31.0114C31.1237 31.0938 31.0311 31.1597 30.9282 31.2049C30.8253 31.2501 30.7142 31.2736 30.6018 31.2741C30.4894 31.2745 30.3781 31.2518 30.2748 31.2074C30.1715 31.1631 30.0785 31.0979 30.0014 31.0161C29.9244 30.9342 29.865 30.8374 29.827 30.7316C29.7889 30.6258 29.773 30.5134 29.7803 30.4012C29.7875 30.289 29.8177 30.1795 29.8691 30.0795C29.9204 29.9795 29.9918 29.8912 30.0787 29.8199L33.583 26.5049C33.6587 26.4273 33.7491 26.3656 33.849 26.3235C33.9489 26.2813 34.0563 26.2596 34.1647 26.2596Z" fill="#0083B7"/>
<path d="M34.0876 26.6311C34.3045 26.6329 34.512 26.7199 34.6654 26.8733C34.8188 27.0267 34.9057 27.2342 34.9076 27.4511V36.2748C34.9076 36.4923 34.8212 36.7008 34.6674 36.8546C34.5136 37.0084 34.3051 37.0948 34.0876 37.0948C33.8701 37.0948 33.6615 37.0084 33.5078 36.8546C33.354 36.7008 33.2676 36.4923 33.2676 36.2748V27.4511C33.2676 27.2336 33.354 27.025 33.5078 26.8712C33.6615 26.7175 33.8701 26.6311 34.0876 26.6311Z" fill="#0083B7"/>
</g>
<defs>
<clipPath id="clip0_1_193">
<rect width="29.4989" height="29.4989" fill="white" transform="translate(11.0784 11.5978)"/>
</clipPath>
</defs>
</svg>
